<?xml version="1.0" encoding="UTF-8"?>
<svg version="1.1" viewBox="0 0 2048 2048" width="1280" height="1280" xmlns="http://www.w3.org/2000/svg">
<path transform="translate(1425,30)" d="m0 0h35l32 2 36 4 23 4 26 6 36 12 24 10 27 14 17 11 14 10 14 11 12 11 8 7 7 7 7 8 11 13 13 18 12 19 13 25 8 19 11 33 5 21 4 25 2 20v49l-4 32-6 29-7 24-7 19-9 21-10 19-12 20-14 20-10 13-11 14-13 17-12 15-9 12-14 18-10 13-11 14-10 13-11 14-14 18-13 17-10 13-14 18-11 14-10 13-11 14-13 17-14 18-10 13-11 14-20 26-28 36-10 13-28 36-13 17-12 15-12 16-22 28-14 18-13 17-10 13-12 15-10 13-12 16-13 16-12 16-14 18-10 13-11 14-10 13-14 18-10 13-14 18-10 13-11 14-13 17-12 15-20 26-14 18-13 17-1 1 115 1h425l29 3 25 5 23 7 19 7 25 12 14 8 15 10 16 12 10 9 8 7 17 17 9 11 13 17 12 19 14 27 10 25 7 23 5 24 3 23v51l-4 29-6 25-9 27-9 20-12 23-10 15-10 14-12 14-9 10-15 15-11 9-17 13-19 12-20 11-23 10-24 8-25 6-28 4-14 1-42 1-212 1-275 3-500 4h-117l-32-3-34-7-26-8-27-10-18-8-19-10-22-13-12-8-14-10-14-11-15-13-13-12-12-12-7-8-9-11-13-17-12-18-12-21-10-21-10-27-6-22-5-28-2-21v-29l3-28 6-29 7-24 11-28 12-25 14-24 16-24 12-16 11-14 12-14 9-11 12-14 9-11 9-10 9-11 12-14 9-11 9-10 9-11 12-14 9-11 24-28 9-11 12-14 9-11 9-10 9-11 12-14 9-11 9-10 16-20h2l2-4 11-13 9-11 8-9 9-11 13-15 9-11 13-15 9-11 12-14 9-11 9-10 9-11 12-14 9-11 9-10 8-10 12-14 11-13 9-11 13-15 9-11 9-10 8-10 12-14 11-13 9-11 13-15 9-11 13-15 9-11 13-15 9-11 12-14 9-11 9-10 9-11 13-15 8-10 9-10 9-11 12-14 11-13 10-12 4-8v-9l-4-6-6-4-479-1-29-2-20-3-25-6-24-8-23-10-20-11-21-14-13-10-14-12-18-18-7-8-12-15-12-18-10-17-12-25-9-25-7-28-4-25-1-8-1-29 2-28 4-25 7-27 9-25 13-27 12-20 10-14 13-16 11-12 16-16 11-9 17-13 16-10 16-9 23-11 33-11 22-5 21-3 11-1 32-1 109-2 40-1 119-2 81-2 256-5 110-2 37-1 121-2z" fill="#2B9999"/>
<path transform="translate(1425,30)" d="m0 0h35l32 2 36 4 23 4 26 6 36 12 24 10 27 14 17 11 14 10 14 11 12 11 8 7 7 7 7 8 11 13 13 18 12 19 13 25 8 19 11 33 5 21 4 25 2 20v49l-4 32-6 29-7 24-7 19-9 21-10 19-12 20-14 20-10 13-11 14-13 17-12 15-9 12-14 18-10 13-11 14-10 13-11 14-14 18-13 17-10 13-14 18-11 14-10 13-11 14-13 17-14 18-10 13-11 14-20 26-28 36-10 13-28 36-13 17-12 15-12 16-22 28-14 18-13 17-10 13-12 15-10 13-12 16-13 16-12 16-14 18-10 13-11 14-10 13-14 18-10 13-14 18-10 13-11 14-13 17-12 15-20 26-14 18-13 17-1 1 115 1h425l29 3 25 5 23 7 19 7 25 12 14 8 15 10 16 12 10 9 8 7 17 17 9 11 13 17 12 19 14 27 10 25 7 23 5 24 3 23v51l-4 29-6 25-9 27-9 20-12 23-10 15-10 14-12 14-9 10-15 15-11 9-17 13-19 12-20 11-23 10-24 8-25 6-28 4-14 1-42 1-212 1-275 3-500 4h-117l-32-3-34-7-26-8-27-10-18-8-19-10-22-13-12-8-14-10-14-11-15-13-13-12-12-12-7-8-9-11-13-17-12-18-12-21-10-21-10-27-6-22-5-28-2-21v-29l3-28 6-29 7-24 11-28 12-25 14-24 16-24 12-16 11-14 12-14 9-11 12-14 9-11 9-10 9-11 12-14 9-11 9-10 9-11 12-14 9-11 24-28 9-11 12-14 9-11 9-10 9-11 12-14 9-11 9-10 16-20h2l2-4 11-13 9-11 8-9 9-11 13-15 9-11 13-15 9-11 12-14 9-11 9-10 9-11 12-14 9-11 9-10 8-10 12-14 11-13 9-11 13-15 9-11 9-10 8-10 12-14 11-13 9-11 13-15 9-11 13-15 9-11 13-15 9-11 12-14 9-11 9-10 9-11 13-15 8-10 9-10 9-11 12-14 11-13 10-12 4-8v-9l-4-6-6-4-479-1-29-2-20-3-25-6-24-8-23-10-20-11-21-14-13-10-14-12-18-18-7-8-12-15-12-18-10-17-12-25-9-25-7-28-4-25-1-8-1-29 2-28 4-25 7-27 9-25 13-27 12-20 10-14 13-16 11-12 16-16 11-9 17-13 16-10 16-9 23-11 33-11 22-5 21-3 11-1 32-1 109-2 40-1 119-2 81-2 256-5 110-2 37-1 121-2zm10 94-50 2-206 4-597 12-130 2-28 1-21 2-20 4-24 8-16 8-11 6-16 11-11 9-20 20-9 12-10 15-9 17-8 21-5 19-3 16-1 9v30l4 26 6 23 8 20 11 20 8 11 7 9 11 12 12 12 13 10 19 12 19 9 21 7 20 5 19 2 453 1 37 1 17 2 15 4 16 8 11 7 10 9 7 7 10 14 10 21 4 13 2 9 1 10v13l-2 14-6 20-9 17-9 12-9 11-8 9-8 10-9 10-8 10-9 10-14 17-7 8-10 12-9 11-10 11-11 14-11 12-7 9-9 10-14 17-7 8-14 17-9 10-14 17-7 8-14 17-9 10-18 22-9 10-8 10-9 10-18 22-9 10-8 10-12 14-11 13-7 8-14 17-12 14-11 13-7 8-14 17-7 8-12 14-8 10-9 10-11 14-12 13-11 14-10 11-11 14-12 13-11 14-10 11-11 14-10 11v2h-2l-11 14-10 11-11 14-12 13-11 14-10 11-11 14-12 13-11 14-10 11-11 14-12 13-11 14-13 16-20 30-12 22-10 24-5 15-6 26-2 17v26l4 26 5 19 8 21 12 23 10 15 11 14 12 13 17 17 11 9 18 14 16 10 17 10 19 9 13 6 33 11 24 6 15 2 31 1 503-4 283-2 321-2 26-2 20-4v-2l7-1 16-5 16-7 14-7 15-10 13-10 15-14 10-11 13-18 9-15 8-17 7-20 5-22 2-15 1-21-2-24-5-24-6-20-11-24-12-19-10-13-11-12-10-10-17-13-16-10-16-8-20-8-19-5-11-1v-2l-21-2h-160l-387-1-17-2-13-4-14-7-14-11-9-10-7-10-3-7h-2l-3-10-4-17v-20l3-15 4-11 6-12 14-19 12-15 26-34 13-16 8-11 11-14 10-13 11-14 14-18 20-26 14-18 10-13 22-28 9-12 14-18 11-14 13-17 12-15 8-11 8-10 13-17 13-16 8-11 11-14 10-13 13-17 13-16 8-11 11-14 10-13 11-14 14-18 20-26 28-36 13-17 11-14 13-17 13-16 8-11 11-14 10-13 11-14 20-26 11-14 10-13 11-14 9-12 22-28 30-39 11-14 14-18 11-16 10-17 8-16 8-20 7-24 4-20 2-16 1-24-1-20-4-27-5-20-7-21-9-20-12-20-10-14-12-14-17-17-14-11-18-12-16-9-19-9-25-9-10-2v-2l-27-6-29-4-26-2z" fill="#2A4C56"/>
<path transform="translate(1422,126)" d="m0 0h54l32 3 28 5 23 6 20 7 20 9 17 9 21 14 11 9 10 9 14 14 11 14 9 13 12 21 8 19 7 21 5 22 3 22 1 25-2 28-4 23-7 25-7 19-7 15-11 19-11 16-10 13-14 18-10 13-14 18-10 13-22 28-9 12-11 14-10 13-11 14-20 26-11 14-30 39-8 10-20 26-13 17-12 15-30 39-12 15-9 12-14 18-10 13-14 18-10 13-22 28-9 12-14 18-10 13-12 15-30 39-13 17-11 14-10 13-11 14-10 13-13 17-12 15-30 39-12 15-9 12-14 18-10 13-14 18-10 13-22 28-9 12-11 14-14 18-9 14-6 12-4 15-1 7v20l4 17 5 13v2h-155l-13-4-9-6-9-10-5-13v-18l4-11 9-13 10-13 14-18 10-13 11-14 14-18 13-17 22-28 20-26 14-18 13-17 12-15 12-16 12-15 9-12 14-18 10-13 12-15 12-16 11-14 14-18 10-13 28-36 10-13 13-17 12-15 30-39 28-36 13-17 12-15 10-13 9-12 11-14 14-18 13-17 11-14 13-17 12-15 9-12 42-54 10-13 14-18 13-17 22-28 20-26 14-18 12-16 7-10 10-16 12-23 9-21 8-25 6-29 4-29 2-27-1-26-4-27-6-24-8-24-8-18-11-21-10-15-8-11-11-13-12-13-8-8-11-9-13-10-20-13v-1z" fill="#FDFDFD"/>
<path transform="translate(1533,1520)" d="m0 0h92l22 2 23 5 18 6 20 9 15 9 14 10 13 11 14 14 13 17 10 16 8 16 6 14 6 20 4 21 2 24-1 21-3 20-6 24-8 20-10 19-9 13-10 13-14 15-11 10-18 13-17 10-21 9-19 6-20 4-21 2-63 1h-30l5-5 10-9 8-7 11-11 7-8 14-18 11-18 11-21 10-26 6-22 4-23 2-23v-16l-3-27-6-27-9-27-11-24-10-17-12-17-11-13-9-10-10-10-13-10-4-3z" fill="#FDFDFD"/>
<path transform="translate(785,214)" d="m0 0h16l92 3 17 1 9 2 5 5 1 2v9l-4 5-7 3-72 8-50 5h-10l-9-6-5-7-1-3v-9l3-8 4-5 7-4z" fill="#FDFDFD"/>
<path transform="translate(981,216)" d="m0 0h12l15 2 10 4 4 3v5l-8 5-14 4-18 2h-9l-19-3-10-5-1-4 4-5 14-5 10-2z" fill="#FDFDFD"/>
</svg>
